<svg xmlns="http://www.w3.org/2000/svg" viewBox="0 0 800 1000" preserveAspectRatio="xMidYMid slice">
	<defs>
		<linearGradient id="sky" x1="0" y1="0" x2="0" y2="1">
			<stop offset="0%" stop-color="#e8e8e8" />
			<stop offset="100%" stop-color="#f6f6f6" />
		</linearGradient>
		<linearGradient id="sea" x1="0" y1="0" x2="0" y2="1">
			<stop offset="0%" stop-color="#7a7a7a" />
			<stop offset="100%" stop-color="#3a3a3a" />
		</linearGradient>
		<linearGradient id="rock" x1="0" y1="0" x2="0" y2="1">
			<stop offset="0%" stop-color="#4a4a4a" />
			<stop offset="100%" stop-color="#1a1a1a" />
		</linearGradient>
	</defs>

	<rect width="800" height="220" fill="url(#sky)" />
	<rect y="180" width="800" height="320" fill="url(#sea)" />

	<path d="M0 380 Q200 360 400 380 T800 380" stroke="rgba(255,255,255,0.25)" stroke-width="2" fill="none" />
	<path d="M0 440 Q200 420 400 440 T800 440" stroke="rgba(255,255,255,0.18)" stroke-width="2" fill="none" />

	<polygon points="500,160 800,80 800,500 480,500 460,300" fill="url(#rock)" />
	<polygon points="500,160 700,140 800,80 800,170 600,210" fill="rgba(255,255,255,0.08)" />
	<polygon points="0,420 80,380 130,420 100,500 0,500" fill="url(#rock)" />

	<g transform="translate(540,420)">
		<path d="M0 0 L50 0 L40 25 L10 25 Z" fill="#ffffff" />
		<path d="M50 0 L100 0 L90 25 L60 25 Z" fill="#000000" />
		<line x1="25" y1="25" x2="25" y2="60" stroke="#000000" stroke-width="2" />
		<line x1="75" y1="25" x2="75" y2="60" stroke="#000000" stroke-width="2" />
	</g>

	<g transform="translate(80,470)">
		<path d="M0 0 L60 0 L55 14 L5 14 Z" fill="#f5f5f5" />
		<rect x="20" y="-14" width="2" height="14" fill="#000000" />
		<polygon points="22,-14 38,-14 38,-5 22,-5" fill="#000000" />
		<polygon points="22,-5 38,-5 38,4 22,4" fill="#ffffff" stroke="#000000" stroke-width="0.5" />
	</g>

	<rect y="500" width="800" height="500" fill="#ffffff" />
	<rect y="500" width="800" height="6" fill="rgba(0,0,0,0.1)" />

	<g font-family="'Bradley Hand','Lucida Handwriting','Snell Roundhand',cursive" fill="#000000">
		<text x="80" y="660" font-size="76" font-style="italic">Ciao Bella.</text>
		<text x="80" y="760" font-size="64" font-style="italic">See you Soon!</text>
		<text x="80" y="860" font-size="56" font-style="italic">xx</text>
		<line x1="170" y1="850" x2="450" y2="850" stroke="#000000" stroke-width="3" />
	</g>

	<g transform="translate(630,540) rotate(4)">
		<rect width="100" height="120" fill="#ffffff" stroke="#000000" stroke-width="2" stroke-dasharray="4,3" />
		<rect x="6" y="6" width="88" height="108" fill="none" stroke="#000000" stroke-width="1" />
		<text x="50" y="42" text-anchor="middle" font-family="'Cormorant Garamond',serif" font-size="16" fill="#000000" letter-spacing="2">30</text>
		<text x="50" y="60" text-anchor="middle" font-family="'Cormorant Garamond',serif" font-size="10" fill="#000000" letter-spacing="1">LIRE</text>
		<circle cx="50" cy="82" r="14" fill="none" stroke="#000000" stroke-width="1" />
		<text x="50" y="106" text-anchor="middle" font-family="'Cormorant Garamond',serif" font-size="9" fill="#000000" letter-spacing="1">POSTE</text>
		<text x="50" y="116" text-anchor="middle" font-family="'Cormorant Garamond',serif" font-size="7" fill="#000000" letter-spacing="1">ITALIANE</text>
	</g>

	<g transform="translate(540,560)" opacity="0.75">
		<circle cx="0" cy="0" r="48" fill="none" stroke="#000000" stroke-width="2" />
		<circle cx="0" cy="0" r="32" fill="none" stroke="#000000" stroke-width="1" />
		<text x="0" y="-12" text-anchor="middle" font-family="'Cormorant Garamond',serif" font-size="9" fill="#000000" letter-spacing="1">MADE IN</text>
		<text x="0" y="0" text-anchor="middle" font-family="'Cormorant Garamond',serif" font-size="11" font-weight="bold" fill="#000000">ITALY</text>
		<text x="0" y="14" text-anchor="middle" font-family="'Cormorant Garamond',serif" font-size="9" fill="#000000" letter-spacing="1">SUMMERVILLA</text>
	</g>
</svg>
